<svg width="1923" height="2010" viewBox="0 0 1923 2010" fill="none" xmlns="http://www.w3.org/2000/svg">
<path d="M617.251 171.359C609.854 260.355 596.919 418.519 595.777 442.53C595.7 444.147 594.963 445.521 593.643 446.458C460.459 541.05 196.155 722.908 188.196 705C178.196 682.5 165.804 417.053 170.696 397.5C177.652 369.7 190.322 313.991 196.784 276.13C197.436 272.314 201.974 270.591 205.001 273.003C229.628 292.625 268.875 320.923 270.696 310C272.625 298.425 370.854 112.24 424.926 10.8152C427.036 6.85725 432.87 7.4978 434.12 11.8056L501.136 242.897C502.122 246.297 506.232 247.624 509.02 245.442L609.181 167.055C612.617 164.366 617.612 167.011 617.251 171.359Z" fill="url(#paint0_linear_184_94)"/>
<path d="M479.526 249.164C484.865 267.572 506.852 274.93 522.163 263.709L522.887 263.161L591.521 209.446C584.813 290.758 576.136 397.774 573.812 432.936C507.502 479.935 412.208 546.111 331.599 599.116C289.829 626.582 252.355 650.28 225.002 665.931C217.66 670.132 211.25 673.631 205.819 676.424C204.875 668.537 203.916 659.02 202.969 648.241C200.509 620.248 198.192 584.634 196.331 548.973C194.471 513.325 193.078 477.837 192.454 450.125C192.142 436.248 192.026 424.477 192.132 415.673C192.185 411.256 192.291 407.772 192.438 405.232C192.545 403.4 192.647 402.566 192.659 402.408C198.129 380.498 206.986 342.019 213.745 307.941C220.766 313.033 227.914 317.953 234.515 322.06C241.299 326.281 249.057 330.641 256.085 332.957C259.133 333.961 265.349 335.756 272.349 334.495C276.355 333.774 281.387 331.9 285.727 327.621C289.542 323.859 291.573 319.468 292.524 315.495C292.615 315.258 292.749 314.916 292.938 314.458C293.6 312.862 294.629 310.548 296.06 307.473C298.904 301.359 303.001 292.958 308.132 282.688C318.374 262.186 332.457 234.786 348.219 204.483C372.452 157.893 400.547 104.648 424.521 59.4883L479.526 249.164ZM292.89 313.699C292.859 313.883 292.826 314.058 292.793 314.224C292.826 314.047 292.861 313.873 292.89 313.699Z" stroke="url(#paint1_linear_184_94)" stroke-opacity="0.2" stroke-width="45"/>
<path d="M258.203 567.457C140.748 678.128 123.291 805.126 108.11 944.76C104.906 974.228 93.0993 1002.12 73.6644 1024.5C42.725 1060.13 6.59719 1099.96 0.701604 1099.96C-9.2984 1099.96 90.7016 1157.46 103.202 1159.96C112.822 1161.88 44.5409 1284.28 5.21232 1352.19C2.67407 1356.57 3.98868 1362.15 8.20312 1364.96L110.703 1424.96C113.639 1426.43 115.193 1429.71 114.461 1432.91C101.684 1488.81 79.3037 1582.74 83.2031 1587.46C90 1595.68 190.703 1552.46 203.203 1552.46C215.703 1552.46 275 1778.18 337.5 1803.18C348.474 1807.57 477.5 1668.18 485 1658.18C489.373 1652.35 532.008 1723.69 582.554 1789.9C615.693 1833.32 673.319 1845.93 724.811 1827.72L885.946 1770.76C887.118 1770.34 888.376 1771.1 888.563 1772.32L891.388 1790.88C891.492 1791.56 892.5 1791.48 892.5 1790.79C892.5 1790.72 892.514 1790.65 892.542 1790.58L977.258 1585.79C979.041 1581.48 984.321 1579.87 988.203 1582.46L1130.93 1701.4C1135.05 1704.83 1141.11 1704.56 1144.9 1700.77C1145.43 1700.23 1145.91 1699.63 1146.32 1698.99L1238.74 1553.42C1243.08 1546.59 1250.6 1542.46 1258.69 1542.46C1260.03 1542.46 1261.37 1542.57 1262.69 1542.8L1557.91 1593.62C1561.44 1594.22 1564.33 1590.85 1563.2 1587.46L1482.11 1389.5C1480.05 1384.47 1482.93 1378.78 1488.2 1377.46L1785.61 1312.17C1790.73 1311.05 1793.43 1305.41 1791.08 1300.72C1790.83 1300.21 1790.53 1299.74 1790.17 1299.29L1603.2 1064.96C1599.65 1061.41 1600.89 1055.38 1605.55 1053.52L1795.7 977.457C1801.09 975.305 1801.94 968.042 1797.2 964.703L1548.74 789.598C1546.75 788.194 1545.14 786.309 1544.07 784.119C1540.48 776.767 1543.68 767.9 1551.14 764.539L1833.2 637.458C1907.5 610.682 1922.5 546.89 1922.5 513.182C1922.5 493.18 1746.71 482.5 1718.2 482.5C1682.5 482.5 1808.2 457.5 1833.2 187.458C1835.05 167.5 1483.2 274.968 1468.2 274.958C1453.2 274.948 1454.55 90.272 1435.7 97.4578C1333.26 136.51 1268.29 204.691 1228.62 264.286C1187.57 325.953 1118.79 374.353 1045.05 367.292C1008.28 363.77 969.63 360.187 938.05 357.528C916.721 355.731 895.456 348.934 885.969 329.747C870.667 298.8 860.967 253.193 853.212 257.458C803.205 284.958 394.677 438.866 258.203 567.457Z" fill="#D9D9D9"/>
<path d="M1424.51 126.355C1427.05 141.554 1429.03 162.818 1430.98 185.437C1432.9 207.724 1434.78 231.301 1437.14 249.162C1438.31 257.963 1439.73 266.505 1441.63 273.201C1442.54 276.377 1443.96 280.627 1446.33 284.542C1447.97 287.255 1454.68 297.449 1468.19 297.458C1470.94 297.46 1473.58 296.976 1474.63 296.784C1476.2 296.495 1477.98 296.112 1479.83 295.686C1483.57 294.827 1488.38 293.615 1493.98 292.147C1505.21 289.201 1520.33 285.04 1537.86 280.16C1573.04 270.365 1618.21 257.601 1662.93 245.439C1707.7 233.261 1751.52 221.825 1783.91 214.684C1793.25 212.623 1801.39 210.977 1808.18 209.779C1794.02 325.575 1760.47 388.793 1734.96 422.72C1721.27 440.917 1709.49 451.272 1702.38 457.794C1700.71 459.33 1698.55 461.319 1696.79 463.249C1695.91 464.22 1694.54 465.797 1693.27 467.804C1692.22 469.475 1689.74 473.7 1689.41 479.616C1688.97 487.196 1692.2 494.159 1697.58 498.759C1701.78 502.356 1706.2 503.579 1708.07 504.029C1711.98 504.97 1716.01 505 1718.2 505C1731.37 505 1781.58 507.591 1828.61 512.708C1852.13 515.268 1873.98 518.37 1889.64 521.899C1893.54 522.779 1896.78 523.625 1899.39 524.405C1896.28 553.772 1880.1 596.641 1825.57 616.291L1824.75 616.586L1823.96 616.944L1541.89 744.025C1522.85 752.605 1514.68 775.239 1523.86 794.002L1523.86 794.003C1526.59 799.594 1530.69 804.404 1535.78 807.99L1761.35 966.964L1597.19 1032.63C1578.06 1040.28 1572.61 1064.56 1586.14 1079.65L1758.1 1295.18L1483.38 1355.48L1483.06 1355.55L1482.74 1355.63C1464.17 1360.27 1454.03 1380.31 1461.29 1398.03L1530.1 1566L1266.51 1520.63H1266.51C1263.92 1520.18 1261.31 1519.96 1258.69 1519.96C1243.15 1519.96 1228.67 1527.78 1220.15 1540.74L1219.75 1541.36L1134.72 1675.27L1002.61 1565.17L1001.68 1564.4L1000.68 1563.73C985.242 1553.44 964.336 1559.57 956.814 1576.38L956.467 1577.19L885.745 1748.15C883.552 1748.23 881.329 1748.6 879.126 1749.31L878.447 1749.54L717.312 1806.51C673.501 1822 626.727 1810.69 600.438 1776.25C575.575 1743.68 552.656 1709.85 534.978 1684.24C526.298 1671.67 518.59 1660.65 512.698 1653.13C509.906 1649.56 506.684 1645.67 503.465 1642.76C502.151 1641.58 498.934 1638.75 494.374 1636.99C491.929 1636.04 487.459 1634.75 481.933 1635.65C475.849 1636.63 470.76 1639.89 467.327 1644.26L467 1644.68C467.074 1644.58 466.633 1645.15 465.224 1646.77C463.978 1648.21 462.294 1650.12 460.206 1652.44C456.038 1657.09 450.422 1663.25 443.813 1670.4C430.598 1684.69 413.553 1702.77 396.421 1720.39C379.229 1738.07 362.194 1755.03 348.92 1767.2C344.61 1771.15 340.884 1774.41 337.804 1776.97C335.79 1775.22 333.55 1773.02 331.101 1770.27C324.787 1763.18 318.134 1753.65 311.291 1742.04C297.596 1718.8 284.424 1689.45 272.446 1659.98C260.438 1630.42 250.18 1602.15 241.67 1580.04C237.531 1569.28 233.679 1559.65 230.342 1552.59C228.727 1549.18 226.813 1545.45 224.649 1542.29C223.605 1540.76 221.891 1538.46 219.47 1536.3C217.532 1534.58 211.857 1529.96 203.203 1529.96C197.825 1529.96 191.706 1531.74 188.387 1532.71C183.895 1534.04 178.501 1535.83 172.758 1537.83C161.472 1541.74 146.849 1547.12 133.548 1551.84C124.889 1554.9 116.575 1557.77 109.184 1560.14C110.676 1552.48 112.51 1543.67 114.571 1534.12C121.238 1503.24 129.961 1466.07 136.396 1437.92C139.368 1424.92 133.278 1411.62 121.683 1405.31L31.123 1352.3C50.0292 1319.43 73.6819 1277.37 92.4561 1241.84C102.901 1222.08 112.065 1203.91 118.058 1190.36C120.975 1183.76 123.558 1177.33 125.037 1172.04C125.687 1169.71 126.696 1165.68 126.615 1161.27C126.576 1159.12 126.268 1154.75 123.815 1150.06C120.937 1144.56 115.601 1139.73 108.324 1138.05L107.614 1137.9L108.337 1138.05C108.624 1138.1 107.522 1137.76 104.255 1136.25C100.804 1134.65 96.2654 1132.38 90.9355 1129.59C80.3143 1124.03 67.2491 1116.78 54.8066 1109.56C48.3723 1105.83 42.204 1102.16 36.6953 1098.79C39.0888 1096.35 41.5806 1093.75 44.1338 1091.06C58.0988 1076.3 75.1116 1057.15 90.6533 1039.26C113.214 1013.28 126.799 981.034 130.479 947.192C145.659 807.564 162.72 688.34 273.633 583.833C338.774 522.455 471.594 453.209 597.574 394.972C659.981 366.123 719.747 340.395 767.187 320.1C799.258 306.38 826.599 294.776 845.004 286.409C845.194 286.932 845.392 287.469 845.591 288.022C850.519 301.707 857.405 322.743 865.8 339.719V339.72C880.838 370.132 913.106 378.007 936.161 379.949H936.162C967.615 382.598 1006.16 386.171 1042.9 389.689C1127.98 397.836 1203.72 342.298 1247.35 276.753C1282.59 223.822 1338.49 164.155 1424.51 126.355ZM503 1671.68C502.868 1671.86 502.731 1672.03 502.593 1672.21C502.742 1672.02 502.88 1671.84 503 1671.68Z" stroke="url(#paint2_linear_184_94)" stroke-opacity="0.2" stroke-width="45"/>
<path d="M245.701 645.001C247.8 626.101 260.483 594.853 268.935 564.593C270.29 559.741 264.495 556.585 261.009 560.222L159.155 666.504C158.529 667.156 158.093 667.966 157.891 668.847L130.699 787.501L95.8499 941.834C95.7499 942.277 95.7099 942.715 95.7324 943.168C99.0477 1010.02 101.318 1137.83 105.699 1122.5C110.699 1105 126.746 1061.05 130.699 1065C142.902 1077.2 163.378 1091.06 173.282 1095.81C175.853 1097.04 178.092 1095.13 177.977 1092.29C177.154 1071.84 176.153 1033.1 178.2 1007.5C183.199 945.001 223.199 905.001 245.701 887.501C263.353 873.774 410.248 775.001 438.2 775.001C483.199 775.001 603.2 822.501 618.2 857.501C633.2 892.501 608.2 1060 618.2 1065C628.2 1070 845.7 1005 860.7 1007.5C875.7 1010 1068.2 1137.5 1070.7 1122.5C1072.68 1110.64 1061.79 987.111 1055.91 924.694C1055.77 923.272 1056.23 921.935 1057.2 920.889C1102.63 872.009 1189.13 775.413 1183.2 767.501C1175.7 757.501 1015.7 707.501 1010.7 707.501C1005.7 707.501 863.2 502.501 845.7 510.001C828.2 517.501 720.699 677.501 703.2 677.501C684.161 677.501 500.757 667.501 445.7 667.501C393.212 667.501 302.781 691.027 252.621 705.489C249.26 706.458 245.875 703.77 245.795 700.274C245.491 686.968 243.514 664.699 245.701 645.001Z" fill="url(#paint3_linear_184_94)"/>
<path d="M847.744 524.356C848.238 524.76 848.782 525.218 849.374 525.737C854.319 530.068 860.904 536.96 868.755 545.929C884.361 563.759 903.757 588.399 922.954 613.526C942.13 638.627 960.877 663.909 975.272 683.09C982.436 692.634 988.564 700.724 993.077 706.447C995.315 709.284 997.283 711.703 998.841 713.469C999.591 714.319 1000.45 715.257 1001.32 716.065C1001.73 716.447 1002.43 717.07 1003.32 717.675C1003.76 717.979 1004.5 718.45 1005.47 718.882C1006.13 719.174 1007.43 719.694 1009.17 719.905C1009.4 719.957 1009.77 720.044 1010.3 720.179C1011.58 720.505 1013.43 721.01 1015.82 721.69C1020.57 723.046 1027.18 725.012 1035.05 727.422C1050.78 732.238 1071.39 738.772 1092.09 745.618C1112.8 752.472 1133.48 759.597 1149.37 765.601C1156.77 768.394 1162.97 770.889 1167.6 772.955C1166.2 775.103 1164.44 777.643 1162.31 780.56C1154.6 791.111 1143.17 805.174 1129.94 820.736C1103.54 851.79 1070.69 888.012 1048.04 912.379H1048.04C1044.65 916.033 1042.99 920.893 1043.46 925.867C1046.4 957.041 1050.59 1003.46 1053.79 1043.55C1055.39 1063.6 1056.74 1082.01 1057.57 1096.1C1057.81 1100.09 1057.99 1103.71 1058.14 1106.9C1054.36 1105.13 1049.9 1102.87 1044.8 1100.17C1026.5 1090.46 1002 1076.02 976.838 1060.86C951.885 1045.82 926.058 1029.95 905.902 1017.9C895.781 1011.85 886.867 1006.64 879.963 1002.83C876.523 1000.93 873.443 999.31 870.892 998.091C868.857 997.119 865.694 995.661 862.755 995.171C859.658 994.655 856.095 995.102 853.888 995.41C851.082 995.802 847.672 996.43 843.856 997.218C836.196 998.799 826.23 1001.16 814.855 1004.01C792.083 1009.7 763.06 1017.47 734.358 1025.11C705.577 1032.77 677.121 1040.31 655.249 1045.63C644.289 1048.29 635.177 1050.34 628.583 1051.58C628.484 1051.59 628.385 1051.61 628.287 1051.63C628.212 1047.5 628.318 1042.22 628.58 1035.91C629.275 1019.17 630.97 996.983 632.547 973.333C634.11 949.889 635.542 925.167 635.622 904.033C635.662 893.467 635.366 883.572 634.538 875.052C633.736 866.795 632.347 858.778 629.689 852.577C624.38 840.188 611.244 828.935 597.009 819.444C582.135 809.528 563.607 799.972 544.42 791.657C525.192 783.325 504.973 776.099 486.578 770.936C468.424 765.84 451.176 762.501 438.2 762.501C432.034 762.501 424.668 764.956 417.93 767.688C410.66 770.637 402.15 774.761 392.984 779.591C374.621 789.268 352.798 802.222 331.482 815.491C288.994 841.94 247.395 870.349 238.027 877.634C214.298 896.088 171.144 938.946 165.74 1006.5C164.105 1026.95 164.358 1055.16 164.937 1076.34C156.748 1070.87 147.409 1063.79 140.611 1057.22L139.538 1056.16L139.235 1055.87C137.685 1054.41 135.588 1053.13 132.98 1052.56C130.25 1051.96 127.804 1052.32 125.962 1052.91C122.694 1053.98 120.583 1056.02 119.696 1056.94C117.686 1059.03 116.071 1061.69 114.909 1063.77C114.28 1064.9 113.634 1066.14 112.981 1067.46C112.923 1066.04 112.864 1064.61 112.807 1063.16C111.303 1025.42 109.904 977.037 108.267 943.595L142.892 790.254L169.612 673.656L247.076 592.825C245.709 596.999 244.352 601.14 243.036 605.229C238.608 618.994 234.488 632.717 233.277 643.621C230.968 664.425 233.023 688.498 233.299 700.56C233.551 711.561 244.194 720.928 256.084 717.5C281.01 710.313 315.868 700.897 350.938 693.287C386.244 685.627 420.874 680.001 445.7 680.001C472.876 680.001 532.148 682.482 587.39 684.988C642.13 687.471 693.303 690.001 703.2 690.001C708.277 690.001 712.409 687.453 714.446 686.089C717.022 684.364 719.655 682.114 722.212 679.699C727.368 674.83 733.425 668.133 739.923 660.466C752.973 645.069 768.783 624.586 784.386 604.147C800.088 583.577 815.581 563.05 828.282 547.134C834.637 539.171 840.137 532.562 844.503 527.778C845.715 526.45 846.795 525.312 847.744 524.356Z" stroke="url(#paint4_linear_184_94)" stroke-opacity="0.2" stroke-width="25"/>
<path d="M243.133 1298.11L196.831 1257.98C192.534 1254.26 185.845 1259.69 188.527 1264.7C272.814 1422.2 353.368 1686.88 688.199 1635C874.379 1606.16 1070.24 1343.75 1154.7 1211.01C1157.34 1206.88 1153.02 1201.92 1148.52 1203.87L900.815 1311.37C899.194 1312.07 897.321 1311.86 895.89 1310.83L728.791 1189.74C726.966 1188.42 724.481 1188.48 722.724 1189.89L613.569 1277.69C611.862 1279.07 609.481 1279.18 607.664 1277.96L477.104 1190.13C474.902 1188.65 471.947 1189.16 470.345 1191.27L406.237 1275.99C404.563 1278.2 401.407 1278.63 399.206 1276.94L300.7 1201.34C298.145 1199.38 294.429 1200.31 293.101 1203.24L250.963 1296.39C249.584 1299.44 245.66 1300.3 243.133 1298.11Z" fill="url(#paint5_linear_184_94)"/>
<path d="M888.556 1320.95C893.564 1324.58 900.117 1325.3 905.791 1322.83L1130.57 1225.29C1087.97 1289.98 1024.31 1376.9 950.601 1453.29C868.11 1538.77 775.059 1608.89 686.285 1622.65C604.284 1635.35 538.612 1628.57 484.925 1609.4C431.245 1590.24 388.8 1558.42 353.637 1519.94C318.389 1481.36 290.528 1436.17 266.102 1390.42C253.895 1367.55 242.612 1344.67 231.681 1322.44C226.515 1311.94 221.419 1301.57 216.354 1291.44L234.946 1307.56C243.793 1315.22 257.527 1312.21 262.352 1301.54L300.591 1217.01L391.596 1286.85C399.3 1292.76 410.344 1291.27 416.204 1283.53L476.031 1204.47L600.687 1288.33C607.105 1292.65 615.486 1292.19 621.403 1287.43L726.095 1203.22L888.556 1320.95Z" stroke="url(#paint6_linear_184_94)" stroke-opacity="0.2" stroke-width="25"/>
<path d="M715.767 1406.87C884.551 1365.03 1031.43 1383.65 1016.79 1398.29L958.722 1463.62C957.448 1465.05 955.911 1466.23 954.196 1467.09C952.606 1467.88 950.889 1468.39 949.123 1468.59L942.825 1469.29C942.446 1469.33 942.256 1469.35 942.079 1469.37C924.283 1471.49 908.98 1482.97 901.969 1499.47C901.9 1499.63 901.826 1499.81 901.68 1500.16L900.66 1502.6C885.661 1542.6 895.66 1562.6 908.16 1617.6C932.029 1722.63 940.66 1810.1 923.16 1875.1C907.655 1932.69 823.16 2042.6 678.16 2000.1C533.16 1957.6 473.16 1825.1 460.66 1772.6C448.16 1720.1 413.16 1585.1 478.16 1515.1C543.16 1445.1 580.66 1430.1 623.16 1420.1C648.663 1414.1 673.885 1411.48 690.174 1410.54C698.004 1410.09 701.919 1409.86 704.214 1409.52C706.508 1409.17 709.595 1408.4 715.767 1406.87Z" fill="url(#paint7_linear_184_94)"/>
<path d="M718.774 1419.01C801.999 1398.37 879.803 1392.67 934.783 1393.9C962.359 1394.51 983.734 1396.87 996.987 1399.78C997.493 1399.89 997.979 1400 998.447 1400.11L949.38 1455.31C949.162 1455.56 948.898 1455.76 948.604 1455.91C948.332 1456.04 948.038 1456.13 947.735 1456.16L941.438 1456.87C941.077 1456.91 940.834 1456.93 940.603 1456.96C918.357 1459.61 899.229 1473.96 890.466 1494.57C890.374 1494.79 890.28 1495.01 890.141 1495.35L889.122 1497.8L889.035 1498L888.956 1498.22C872.298 1542.64 883.931 1567.4 895.971 1620.37C919.783 1725.15 927.738 1810.02 911.09 1871.85C904.098 1897.82 880.816 1937.26 841.964 1964.96C803.685 1992.25 750.252 2008.21 681.676 1988.11C542.714 1947.38 484.78 1819.94 472.819 1769.71C466.513 1743.22 454.96 1697.52 452.835 1649.86C450.693 1601.82 458.302 1554.86 487.319 1523.61C519.345 1489.12 544.075 1468.75 565.55 1455.81C586.847 1442.97 605.482 1437.1 626.023 1432.27C650.627 1426.48 675.094 1423.93 690.892 1423.02C698.321 1422.59 703.051 1422.33 706.085 1421.88C709.108 1421.42 712.926 1420.46 718.774 1419.01ZM1008.39 1403.36C1008.62 1403.5 1008.57 1403.5 1008.37 1403.35C1008.38 1403.35 1008.38 1403.35 1008.39 1403.36Z" stroke="url(#paint8_linear_184_94)" stroke-opacity="0.2" stroke-width="25"/>
<path d="M834.295 1360.79C784.296 1323.29 829.294 1320.79 739.293 1373.29C603.181 1452.68 606.792 1703.29 726.794 1808.29" stroke="#B33867" stroke-opacity="0.41" stroke-width="40" stroke-linecap="round"/>
<path d="M233.2 950.001C227.2 988.001 272.366 1027.5 295.699 1040L345.698 1060C405.698 1035 475.698 972.001 485.698 960.001C498.198 945.001 508.198 897.501 478.198 877.501C448.198 857.501 343.198 872.501 310.698 877.501C278.198 882.501 240.7 902.501 233.2 950.001Z" fill="url(#paint9_linear_184_94)"/>
<path d="M396.21 883.104C412.887 882.186 429.032 882.064 442.579 883.299C456.768 884.592 465.699 887.196 469.878 889.982C479.032 896.085 483.146 906.949 482.889 920.338C482.623 934.164 477.685 946.186 474.175 950.398C470.263 955.092 451.339 973.027 425.251 993.276C401.048 1012.06 372.142 1031.68 345.459 1043.75L302.103 1026.41C292.116 1020.91 276.928 1009.34 264.983 994.974C252.427 979.871 246.038 964.866 248.016 952.341C254.119 913.687 284.151 896.762 312.979 892.327C329.124 889.843 362.907 884.937 396.21 883.104Z" stroke="url(#paint10_linear_184_94)" stroke-opacity="0.2" stroke-width="30"/>
<path d="M998.118 740.001H700.698C697.937 740.001 695.692 742.235 695.612 744.995C695.066 763.666 692.235 802.67 695.698 842.501C703.959 937.501 734.191 959.021 797.5 975.681C845 988.181 933.198 962.501 975.698 942.501C1031.79 916.106 1011.1 802.483 1003.08 744.314C1002.74 741.83 1000.63 740.001 998.118 740.001Z" fill="url(#paint11_linear_184_94)"/>
<path d="M228.726 776.902L128.884 804.132C126.952 804.659 125.521 806.288 125.247 808.272L122.5 828.181L112.5 863.181L105.698 900.681L97.7199 936.513C97.5748 937.165 97.5617 937.839 97.6813 938.496L105.698 982.501C108.198 990.834 115.698 1009.5 125.698 1017.5C135.5 1025.34 160.513 1006.6 172.488 995.656C172.964 995.22 173.338 994.7 173.611 994.116L190.698 957.501L200.497 937.904C200.631 937.636 200.789 937.38 200.969 937.14L222.353 908.628C222.906 907.891 223.244 907.015 223.331 906.098L235.019 782.196C235.348 778.717 232.097 775.983 228.726 776.902Z" fill="url(#paint12_linear_184_94)"/>
<path d="M213.507 903.754L192.969 931.141C192.497 931.77 192.075 932.436 191.707 933.132L191.553 933.432L181.754 953.029L181.693 953.149L181.637 953.272L164.981 988.96C159.323 994.049 151.095 1000.55 143.357 1004.92C139.268 1007.23 135.87 1008.63 133.396 1009.15C132.43 1009.35 131.853 1009.38 131.555 1009.37C128.349 1006.63 124.909 1001.66 121.785 995.565C118.789 989.719 116.574 983.817 115.43 980.128L107.7 937.697L115.459 902.854L115.502 902.661L115.538 902.466L122.252 865.446L132.115 830.928L132.31 830.248L132.406 829.548L134.701 812.91L224.385 788.451L213.507 903.754ZM993.782 750.001C997.903 779.232 1004.21 818.957 1003.43 855.107C1003.03 874.047 1000.67 891.257 995.423 905.017C990.232 918.631 982.477 928.26 971.44 933.453C950.923 943.108 918.961 954.301 886.316 961.514C853.296 968.81 821.359 971.619 800.045 966.01C768.742 957.772 747.963 948.849 733.562 931.977C719.099 915.031 709.732 888.454 705.661 841.635C702.523 805.543 704.655 770.307 705.441 750.001H993.782Z" stroke="url(#paint13_linear_184_94)" stroke-opacity="0.2" stroke-width="20"/>
<path d="M917.494 740.013H816.822C816.822 748.346 817.492 779.184 817.492 803.184C817.492 833.184 839.992 858.184 852.492 865.684C864.992 873.184 877.492 858.184 894.992 840.684C908.992 826.684 917.494 765.013 917.494 740.013Z" fill="#202020"/>
<path d="M204.994 783.184L149.994 798.184C142.494 825.684 144.995 870.684 144.992 893.184C144.991 908.39 157.494 928.184 167.494 930.684C177.494 933.184 185.942 878.087 187.494 865.684C189.995 845.684 199.994 805.684 204.994 783.184Z" fill="#202020"/>
<path d="M198.274 790.198C193.01 813.096 184.788 847.031 182.532 865.063C181.77 871.161 179.297 887.844 175.797 902.62C174.036 910.052 172.079 916.726 170.05 921.297C169.126 923.378 168.315 924.722 167.697 925.479C166.476 924.946 164.94 923.93 163.199 922.28C160.999 920.194 158.764 917.374 156.759 914.091C152.692 907.435 149.992 899.587 149.992 893.184C149.993 881.589 149.368 865.174 149.681 847.648C149.971 831.393 151.077 815.007 154.119 802.241L198.274 790.198ZM912.396 745.013C911.942 757.485 909.931 775.999 906.582 793.536C904.669 803.552 902.346 813.11 899.681 820.955C896.944 829.01 894.083 834.522 891.457 837.148C882.431 846.174 875.382 853.82 868.927 858.515C865.769 860.812 863.175 862.068 860.988 862.495C858.986 862.885 857.12 862.629 855.064 861.396C849.574 858.101 841.338 850.557 834.483 840.125C827.662 829.745 822.492 816.938 822.492 803.183C822.492 791.145 822.324 777.405 822.156 765.652C822.037 757.325 821.921 750.032 821.862 745.013H912.396Z" stroke="url(#paint14_linear_184_94)" stroke-opacity="0.2" stroke-width="10" stroke-linecap="round"/>
<path d="M828.65 740.015C823.645 740.019 734.995 740.015 734.995 740.015C729.995 762.515 742.498 790.679 752.498 798.179C762.498 805.679 787.353 808.273 802.498 798.179C817.501 788.179 833.656 740.01 828.65 740.015Z" fill="white"/>
<path d="M167.499 813.179C171.499 805.179 180.001 803.179 185.001 803.179C192.501 803.179 201.001 804.679 205.001 810.679C210.001 818.179 205.001 825.679 197.501 833.179C191.91 838.769 184.773 839.997 177.496 838.179C167.495 835.679 162.499 823.179 167.499 813.179Z" fill="white"/>
<path d="M185.001 805.679C188.611 805.679 192.332 806.043 195.561 807.062C198.785 808.081 201.338 809.692 202.921 812.065C204.888 815.016 204.923 817.866 203.631 820.967C202.266 824.242 199.438 827.705 195.732 831.411C190.879 836.264 184.699 837.402 178.103 835.753C169.91 833.705 165.328 823.113 169.735 814.297C173.121 807.526 180.428 805.679 185.001 805.679ZM738.813 742.515C741.247 742.515 744.73 742.515 748.925 742.516C757.314 742.516 768.551 742.516 779.945 742.517C800.197 742.517 820.947 742.516 827.07 742.515C827.026 743.574 826.796 745.134 826.346 747.148C825.338 751.654 823.366 757.857 820.754 764.421C818.145 770.979 814.932 777.81 811.473 783.587C807.967 789.441 804.378 793.921 801.111 796.099C794.111 800.764 784.682 802.591 775.655 802.278C766.582 801.964 758.438 799.509 753.998 796.179C749.585 792.869 744.169 784.508 740.482 773.9C737.048 764.019 735.291 752.681 737.051 742.515C737.554 742.515 738.144 742.515 738.813 742.515Z" stroke="url(#paint15_linear_184_94)" stroke-opacity="0.2" stroke-width="5"/>
<path d="M885 1413.18C877.5 1448.18 895 1517.18 895 1523.18C925.833 1499.85 970 1453.18 970 1450.68C970 1439.37 907.5 1418.18 885 1413.18Z" fill="url(#paint16_linear_184_94)"/>
<path d="M377.5 1468.18C371.5 1470.18 350 1503.18 340 1525.68C349.167 1534.01 359.5 1545.68 367.5 1555.68C375.5 1565.68 410.833 1587.35 422.5 1593.18C421.667 1582.35 416.617 1551.27 415 1543.18C412.5 1530.68 385 1465.68 377.5 1468.18Z" fill="url(#paint17_linear_184_94)"/>
<path d="M377.999 1470.71C378.298 1470.89 378.747 1471.26 379.344 1471.89C380.643 1473.27 382.238 1475.48 384.046 1478.4C387.64 1484.21 391.81 1492.39 395.857 1501.11C399.897 1509.81 403.783 1518.98 406.812 1526.75C409.869 1534.59 411.973 1540.79 412.549 1543.67C413.968 1550.77 418.041 1575.67 419.55 1588.79C413.28 1585.35 404.006 1579.8 394.995 1573.9C389.379 1570.22 383.901 1566.43 379.346 1562.95C374.738 1559.43 371.245 1556.36 369.452 1554.12C361.793 1544.55 351.973 1533.41 343.021 1525.07C347.971 1514.28 355.374 1501.3 362.345 1490.61C366.006 1484.99 369.516 1480.05 372.459 1476.42C373.933 1474.6 375.232 1473.14 376.311 1472.1C376.849 1471.59 377.304 1471.2 377.673 1470.93C377.798 1470.84 377.907 1470.77 377.999 1470.71ZM886.962 1416.21C898.529 1419.01 917.971 1425.11 935.014 1431.89C944.188 1435.54 952.567 1439.35 958.615 1442.91C961.649 1444.69 963.992 1446.35 965.545 1447.84C966.747 1448.98 967.232 1449.79 967.409 1450.27C967.134 1450.67 966.703 1451.24 966.102 1451.98C964.875 1453.49 963.065 1455.57 960.767 1458.1C956.177 1463.16 949.721 1469.92 942.295 1477.35C928.506 1491.14 911.462 1507.11 896.874 1518.57C896.824 1518.29 896.775 1518.01 896.722 1517.72C896.255 1515.17 895.596 1511.82 894.837 1507.91C893.315 1500.06 891.369 1489.81 889.658 1478.68C886.381 1457.35 884.036 1433.14 886.962 1416.21Z" stroke="url(#paint18_linear_184_94)" stroke-opacity="0.2" stroke-width="5"/>
<defs>
<linearGradient id="paint0_linear_184_94" x1="404.999" y1="-49.3188" x2="407.499" y2="475.681" gradientUnits="userSpaceOnUse">
<stop stop-color="#D9D9D9"/>
<stop offset="0.817308" stop-color="#D7D7D7"/>
<stop offset="1" stop-color="#CCCCCC"/>
</linearGradient>
<linearGradient id="paint1_linear_184_94" x1="393.895" y1="0" x2="393.895" y2="706.231" gradientUnits="userSpaceOnUse">
<stop stop-color="white"/>
<stop offset="1" stop-color="#272727"/>
</linearGradient>
<linearGradient id="paint2_linear_184_94" x1="961.25" y1="97.2534" x2="961.25" y2="1857.46" gradientUnits="userSpaceOnUse">
<stop stop-color="white"/>
<stop offset="1" stop-color="#272727"/>
</linearGradient>
<linearGradient id="paint3_linear_184_94" x1="639.595" y1="509.8" x2="549.996" y2="1143.18" gradientUnits="userSpaceOnUse">
<stop stop-color="#202020"/>
<stop offset="1" stop-color="#4D4D4D"/>
</linearGradient>
<linearGradient id="paint4_linear_184_94" x1="639.595" y1="509.8" x2="639.595" y2="1123.77" gradientUnits="userSpaceOnUse">
<stop stop-color="white"/>
<stop offset="1" stop-color="#272727"/>
</linearGradient>
<linearGradient id="paint5_linear_184_94" x1="604.996" y1="1158.18" x2="668.199" y2="1641.63" gradientUnits="userSpaceOnUse">
<stop stop-color="#B33867"/>
<stop offset="1" stop-color="#A11D4F"/>
</linearGradient>
<linearGradient id="paint6_linear_184_94" x1="668.199" y1="1187.5" x2="668.199" y2="1641.63" gradientUnits="userSpaceOnUse">
<stop stop-color="white"/>
<stop offset="1" stop-color="#272727"/>
</linearGradient>
<linearGradient id="paint7_linear_184_94" x1="728.899" y1="1381.24" x2="728.899" y2="2009.64" gradientUnits="userSpaceOnUse">
<stop stop-color="#F44C8E"/>
<stop offset="1" stop-color="#FF8BB8"/>
</linearGradient>
<linearGradient id="paint8_linear_184_94" x1="728.899" y1="1381.24" x2="728.899" y2="2009.64" gradientUnits="userSpaceOnUse">
<stop stop-color="white"/>
<stop offset="1" stop-color="#272727"/>
</linearGradient>
<linearGradient id="paint9_linear_184_94" x1="365.278" y1="867.394" x2="365.278" y2="1060" gradientUnits="userSpaceOnUse">
<stop stop-color="#202020"/>
<stop offset="1" stop-color="#676767"/>
</linearGradient>
<linearGradient id="paint10_linear_184_94" x1="365.278" y1="867.394" x2="365.278" y2="1060" gradientUnits="userSpaceOnUse">
<stop stop-color="white"/>
<stop offset="1" stop-color="#272727"/>
</linearGradient>
<linearGradient id="paint11_linear_184_94" x1="459.995" y1="633.183" x2="457.495" y2="1340.68" gradientUnits="userSpaceOnUse">
<stop stop-color="#FE5397"/>
<stop offset="1" stop-color="#D93B7A"/>
</linearGradient>
<linearGradient id="paint12_linear_184_94" x1="459.995" y1="633.183" x2="457.495" y2="1340.68" gradientUnits="userSpaceOnUse">
<stop stop-color="#FE5397"/>
<stop offset="1" stop-color="#D93B7A"/>
</linearGradient>
<linearGradient id="paint13_linear_184_94" x1="555.499" y1="740.001" x2="555.499" y2="1019.37" gradientUnits="userSpaceOnUse">
<stop stop-color="white"/>
<stop offset="1" stop-color="#272727"/>
</linearGradient>
<linearGradient id="paint14_linear_184_94" x1="531.044" y1="740.013" x2="531.044" y2="930.766" gradientUnits="userSpaceOnUse">
<stop stop-color="white"/>
<stop offset="1" stop-color="#272727"/>
</linearGradient>
<linearGradient id="paint15_linear_184_94" x1="497.558" y1="740.015" x2="497.558" y2="838.961" gradientUnits="userSpaceOnUse">
<stop stop-color="white"/>
<stop offset="1" stop-color="#272727"/>
</linearGradient>
<linearGradient id="paint16_linear_184_94" x1="620" y1="1163.18" x2="677.5" y2="1738.18" gradientUnits="userSpaceOnUse">
<stop stop-color="white"/>
<stop offset="0.514423" stop-color="#F5F5F5"/>
<stop offset="1" stop-color="#605151"/>
</linearGradient>
<linearGradient id="paint17_linear_184_94" x1="620" y1="1163.18" x2="677.5" y2="1738.18" gradientUnits="userSpaceOnUse">
<stop stop-color="white"/>
<stop offset="0.514423" stop-color="#F5F5F5"/>
<stop offset="1" stop-color="#605151"/>
</linearGradient>
<linearGradient id="paint18_linear_184_94" x1="655" y1="1413.18" x2="655" y2="1593.18" gradientUnits="userSpaceOnUse">
<stop stop-color="white"/>
<stop offset="1" stop-color="#272727"/>
</linearGradient>
</defs>
</svg>
