<?xml version="1.0" encoding="utf-8" ?><svg xmlns="http://www.w3.org/2000/svg" xmlns:xlink="http://www.w3.org/1999/xlink" width="256" height="256" viewBox="0 0 256 256"><defs><linearGradient id="gradient_0" gradientUnits="userSpaceOnUse" x1="125.56722" y1="216.51274" x2="97.540825" y2="66.687141"><stop offset="0" stop-color="#64AD03"/><stop offset="1" stop-color="#B2F122"/></linearGradient></defs><path fill="url(#gradient_0)" d="M123.66 17.7223C129.215 16.3632 134.124 17.6356 138.043 21.8985C148.013 32.0009 143.609 46.4797 158.038 52.2118C165.436 55.1503 173.829 59.3656 177.983 66.4157C178.399 67.1579 178.81 67.9031 179.215 68.6514C181.861 75.0841 182.031 81.5277 179.376 87.8456C177.969 91.1952 174.044 96.9035 177.701 99.7666C178.546 100.26 179.165 100.636 179.959 101.204L182.273 102.643C192.298 107.931 200.357 113.808 207.17 123.032C207.771 123.845 209.832 126.921 210.112 127.767C210.946 129.123 211.722 130.513 212.44 131.935C218.314 143.713 219.161 159.193 215.132 171.632C209.841 187.969 196.67 199.089 181.701 206.322C169.648 212.146 158.184 215.282 148.177 224.696C142.221 230.299 133.162 241.475 123.966 237.927C115.261 234.466 109.28 225.141 101.225 219.715C93.0757 214.226 86.1763 212.01 77.5612 208.122C62.9145 201.511 49.2194 192.014 42.3985 176.961C37.8335 166.886 38.5033 161.864 38.4433 151.384C40.3266 151.703 41.8529 151.663 43.6837 152.108C43.6731 153.052 43.4994 156.901 43.8958 157.437L43.9056 154.42C43.952 152.512 43.9538 150.345 44.2016 148.476C44.2734 147.348 44.5601 145.734 44.9021 144.674C45.1334 142.754 46.4158 139.212 47.0956 137.28C46.751 136.409 47.7795 134.456 47.2357 134.219C45.8315 133.608 44.4294 133.076 43.0787 132.34L42.8624 132.221C50.4846 116.411 60.9082 109.365 75.5358 101.202C80.5008 97.7264 80.204 96.6995 77.819 91.5226C75.3006 88.4478 73.8476 80.3877 74.3553 76.5518C75.1209 79.0443 78.2539 78.872 80.0413 77.554L80.3927 75.4534L80.5511 74.0156C81.3504 71.8715 81.613 71.2005 82.7534 69.2039C81.722 67.4659 79.0969 67.1725 77.2084 66.7143C77.49 66.1403 78.0491 65.4286 78.4358 64.8938C84.7985 57.2623 89.7468 55.788 98.5412 51.6022C103.925 49.0399 105.924 46.8552 107.92 41.3286C111.636 32.6357 113.501 21.5209 123.66 17.7223Z"/><path fill="#FDFDFD" d="M177.701 99.7666C178.546 100.26 179.165 100.636 179.959 101.204L182.273 102.643C192.298 107.931 200.357 113.808 207.17 123.032C207.771 123.845 209.832 126.921 210.112 127.767C210.946 129.123 211.722 130.513 212.44 131.935C211.516 134.221 209.24 133.756 207.439 135.13C210.133 142.511 211.88 147.866 211.575 155.948C211.516 157.496 211.459 160.145 210.937 161.582L210.826 161.791C209.309 164.671 207.194 170.007 205.418 172.591C199.157 181.693 189.063 191.318 178.742 195.532C178.56 195.606 178.287 195.58 178.108 195.57C177.89 195.26 177.826 195.232 177.719 194.871C170.149 201.111 165.493 203.731 155.304 204.05C148.089 203.131 147.676 201.748 142.354 197.799L142.244 197.719C133.942 186.826 132.592 175.248 133.569 161.945C134.34 151.436 139.758 133.01 148.06 125.967C152.111 121.539 155.665 119.063 161.419 117.133C161.279 116.902 160.816 116.117 160.787 115.888C159.844 108.481 166.048 105.428 171.563 103.642L171.734 103.588C171.883 103.224 171.985 102.934 172.108 102.561C171.911 102.061 170.979 101.071 170.578 100.609L170.55 100.25C171.218 100.329 177.176 99.9308 177.701 99.7666Z"/><path fill="#BFF93D" d="M177.701 99.7666C178.546 100.26 179.165 100.636 179.959 101.204L182.273 102.643C192.298 107.931 200.357 113.808 207.17 123.032C207.771 123.845 209.832 126.921 210.112 127.767C210.946 129.123 211.722 130.513 212.44 131.935C211.516 134.221 209.24 133.756 207.439 135.13L207.191 134.935L206.153 132.921C204.681 134.67 202.659 136.169 201.012 137.771C199.326 139.41 195.869 145.571 193.453 145.565L193.406 145.337C193.173 144.217 192.91 143.584 192.098 142.746C191.796 141.548 191.453 140.36 191.072 139.185C188.179 130.123 181.977 119.85 172.226 117.07C168.926 116.129 164.689 116.071 161.419 117.133C161.279 116.902 160.816 116.117 160.787 115.888C159.844 108.481 166.048 105.428 171.563 103.642L171.734 103.588C171.883 103.224 171.985 102.934 172.108 102.561C171.911 102.061 170.979 101.071 170.578 100.609L170.55 100.25C171.218 100.329 177.176 99.9308 177.701 99.7666Z"/><path fill="#40423E" d="M177.701 99.7666C178.546 100.26 179.165 100.636 179.959 101.204L182.273 102.643C192.298 107.931 200.357 113.808 207.17 123.032C207.771 123.845 209.832 126.921 210.112 127.767C210.946 129.123 211.722 130.513 212.44 131.935C211.516 134.221 209.24 133.756 207.439 135.13L207.191 134.935L206.153 132.921L205.033 130.944C200.468 123.192 194.909 117.204 187.243 112.46C182.991 109.828 178.779 107.595 174.701 104.698L173.108 103.543L172.108 102.561C171.911 102.061 170.979 101.071 170.578 100.609L170.55 100.25C171.218 100.329 177.176 99.9308 177.701 99.7666Z"/><path fill="#262625" d="M177.701 99.7666C178.546 100.26 179.165 100.636 179.959 101.204L182.273 102.643C179.851 102.318 175.929 102.164 174.701 104.698L173.108 103.543L172.108 102.561C171.911 102.061 170.979 101.071 170.578 100.609L170.55 100.25C171.218 100.329 177.176 99.9308 177.701 99.7666Z"/><path fill="#21221E" d="M177.701 99.7666C178.546 100.26 179.165 100.636 179.959 101.204C178.169 101.143 176.932 100.835 175.248 100.202C174.618 101.413 174.138 102.775 173.108 103.543L172.108 102.561C171.911 102.061 170.979 101.071 170.578 100.609L170.55 100.25C171.218 100.329 177.176 99.9308 177.701 99.7666Z"/><path fill="#21221E" d="M210.112 127.767C210.946 129.123 211.722 130.513 212.44 131.935C211.516 134.221 209.24 133.756 207.439 135.13L207.191 134.935L206.153 132.921L205.033 130.944C205.653 130.606 206.06 130.221 206.619 130.326C206.262 130.734 206.206 130.759 206.097 131.273C207.158 131.723 210.325 131.125 210.553 129.638C210.215 128.915 210.033 128.601 210.112 127.767Z"/><defs><linearGradient id="gradient_1" gradientUnits="userSpaceOnUse" x1="202.49263" y1="176.76491" x2="183.54242" y2="156.33157"><stop offset="0" stop-color="#4F9600"/><stop offset="1" stop-color="#7BBF07"/></linearGradient></defs><path fill="url(#gradient_1)" d="M206.153 132.921L207.191 134.935L207.439 135.13C210.133 142.511 211.88 147.866 211.575 155.948C211.516 157.496 211.459 160.145 210.937 161.582L210.826 161.791C209.309 164.671 207.194 170.007 205.418 172.591C199.157 181.693 189.063 191.318 178.742 195.532C178.56 195.606 178.287 195.58 178.108 195.57C177.89 195.26 177.826 195.232 177.719 194.871C190.339 182.963 194.214 168.116 193.329 151.256C193.244 149.722 192.858 146.995 192.534 145.506L192.098 142.746C192.91 143.584 193.173 144.217 193.406 145.337L193.453 145.565C195.869 145.571 199.326 139.41 201.012 137.771C202.659 136.169 204.681 134.67 206.153 132.921Z"/><path fill="#A8E235" d="M206.153 132.921L207.191 134.935C206.612 136.425 201.827 139.278 200.463 140.902C199.076 142.554 198.795 143.798 197.714 145.626C197.44 146.09 195.86 147.525 195.428 147.993C195.259 148.175 193.654 149.85 193.674 149.952C193.858 150.906 194.174 150.362 193.329 151.256C193.244 149.722 192.858 146.995 192.534 145.506L192.098 142.746C192.91 143.584 193.173 144.217 193.406 145.337L193.453 145.565C195.869 145.571 199.326 139.41 201.012 137.771C202.659 136.169 204.681 134.67 206.153 132.921Z"/><path fill="#010101" d="M148.06 125.967C148.184 125.939 149.234 125.699 149.234 125.699C151.356 122.833 154.137 121.059 157.355 119.615C158.622 119.046 160.114 118.513 161.33 117.7C161.484 118.335 161.746 119.088 161.616 119.695C159.243 120.096 152.862 124.409 151.167 126.332L151.282 126.795C139.388 140.624 135.501 155.292 136.493 173.562C138.008 201.474 160.627 210.107 179.131 188.543C188.748 177.335 191.329 163.024 189.965 148.366L189.924 147.939L190.225 147.645C189.989 145.282 189.235 142.436 188.619 140.149C189.286 139.794 189.653 139.535 190.422 139.508C191.798 140.53 190.896 142.016 191.237 144.239C192.002 144.616 192.089 144.816 192.534 145.506C192.858 146.995 193.244 149.722 193.329 151.256C194.214 168.116 190.339 182.963 177.719 194.871C170.149 201.111 165.493 203.731 155.304 204.05C148.089 203.131 147.676 201.748 142.354 197.799L142.244 197.719C133.942 186.826 132.592 175.248 133.569 161.945C134.34 151.436 139.758 133.01 148.06 125.967Z"/><defs><linearGradient id="gradient_2" gradientUnits="userSpaceOnUse" x1="174.1075" y1="130.24214" x2="180.75452" y2="122.75028"><stop offset="0" stop-color="#2A3126"/><stop offset="1" stop-color="#494D40"/></linearGradient></defs><path fill="url(#gradient_2)" d="M161.419 117.133C164.689 116.071 168.926 116.129 172.226 117.07C181.977 119.85 188.179 130.123 191.072 139.185C191.453 140.36 191.796 141.548 192.098 142.746L192.534 145.506C192.089 144.816 192.002 144.616 191.237 144.239C190.896 142.016 191.798 140.53 190.422 139.508C189.653 139.535 189.286 139.794 188.619 140.149C189.235 142.436 189.989 145.282 190.225 147.645L189.924 147.939C189.777 147.674 188.916 143.624 188.791 143.012C186.278 130.692 176.308 115.377 161.702 120.234C157.264 121.71 155.027 123.93 151.282 126.795L151.167 126.332C152.862 124.409 159.243 120.096 161.616 119.695C161.746 119.088 161.484 118.335 161.33 117.7C160.114 118.513 158.622 119.046 157.355 119.615C154.137 121.059 151.356 122.833 149.234 125.699C149.234 125.699 148.184 125.939 148.06 125.967C152.111 121.539 155.665 119.063 161.419 117.133Z"/><path fill="#010101" d="M163.77 145.323C165.838 145.049 167.94 145.424 169.785 146.398C180.979 152.291 177.138 176.708 169.297 184.058C165.831 187.308 164.744 188.223 160.113 189.596C138.839 190.181 144.81 147.391 163.77 145.323Z"/><path fill="#84C028" d="M163.435 148.264C170.481 147.86 172.936 152.964 173.491 159.168C174.396 169.29 170.688 183.13 159.665 186.248C144.64 187.123 147.156 153.348 163.435 148.264Z"/><path fill="#010101" d="M212.44 131.935C218.314 143.713 219.161 159.193 215.132 171.632C209.841 187.969 196.67 199.089 181.701 206.322C169.648 212.146 158.184 215.282 148.177 224.696C142.221 230.299 133.162 241.475 123.966 237.927C115.261 234.466 109.28 225.141 101.225 219.715C93.0757 214.226 86.1763 212.01 77.5612 208.122C62.9145 201.511 49.2194 192.014 42.3985 176.961C37.8335 166.886 38.5033 161.864 38.4433 151.384C40.3266 151.703 41.8529 151.663 43.6837 152.108C43.6731 153.052 43.4994 156.901 43.8958 157.437C44.0235 159.369 44.1454 161.665 44.5756 163.556C45.108 162.311 44.5729 160.676 44.595 159.266L44.8507 159.265C46.3157 161.127 46.631 163.597 47.52 165.749C55.8733 185.967 73.6011 196.514 93.8917 201.935C99.2579 203.869 104.217 207.068 108.595 210.506C114.063 214.8 118.934 222.888 124.869 226.061C132.795 230.299 139.65 215.083 144.238 211.094C145.954 209.621 147.795 208.301 149.74 207.147C150.674 206.601 154.98 204.55 155.304 204.05C165.493 203.731 170.149 201.111 177.719 194.871C177.826 195.232 177.89 195.26 178.108 195.57C178.287 195.58 178.56 195.606 178.742 195.532C189.063 191.318 199.157 181.693 205.418 172.591C207.194 170.007 209.309 164.671 210.826 161.791L210.937 161.582C211.459 160.145 211.516 157.496 211.575 155.948C211.88 147.866 210.133 142.511 207.439 135.13C209.24 133.756 211.516 134.221 212.44 131.935Z"/><path fill="#456F03" d="M44.5756 163.556C45.108 162.311 44.5729 160.676 44.595 159.266L44.8507 159.265C46.3157 161.127 46.631 163.597 47.52 165.749C55.8733 185.967 73.6011 196.514 93.8917 201.935C99.2579 203.869 104.217 207.068 108.595 210.506C114.063 214.8 118.934 222.888 124.869 226.061C132.795 230.299 139.65 215.083 144.238 211.094C145.954 209.621 147.795 208.301 149.74 207.147C150.674 206.601 154.98 204.55 155.304 204.05C165.493 203.731 170.149 201.111 177.719 194.871C177.826 195.232 177.89 195.26 178.108 195.57C178.287 195.58 178.56 195.606 178.742 195.532C189.063 191.318 199.157 181.693 205.418 172.591C207.194 170.007 209.309 164.671 210.826 161.791L210.937 161.582C211.091 165.146 208.788 171.76 207.285 175.003C201.21 188.036 188.303 196.842 175.473 202.492C164.334 207.398 153.674 211.321 144.494 219.732C139.839 223.497 134.355 231.333 128.244 232.231C124.587 232.769 118.398 227.214 116.165 224.752C105.272 212.741 92.0833 207.508 77.4931 201.458C70.9947 198.763 62.6525 192.653 57.4491 187.908C51.8375 182.704 45.1485 171.257 44.5756 163.556Z"/><defs><linearGradient id="gradient_3" gradientUnits="userSpaceOnUse" x1="110.63772" y1="79.495041" x2="133.40056" y2="27.657434"><stop offset="0" stop-color="#9EEB1F"/><stop offset="1" stop-color="#FBFF67"/></linearGradient></defs><path fill="url(#gradient_3)" d="M123.66 17.7223C129.215 16.3632 134.124 17.6356 138.043 21.8985C148.013 32.0009 143.609 46.4797 158.038 52.2118C165.436 55.1503 173.829 59.3656 177.983 66.4157C176.553 68.3923 174.255 68.6968 173.255 70.015L173.068 70.0155C171.457 66.3014 167.334 63.3526 163.784 61.6572C161.744 60.0465 153.282 56.6116 150.188 54.8733L150.297 55.037C150.724 55.6699 150.824 55.7824 151.567 56.0765C152.399 57.599 148.939 59.7085 147.763 60.4447C146.996 59.336 146.638 59.1022 145.516 58.3624C144.644 57.5191 141.515 55.6966 140.283 54.929C127.973 47.2559 129.935 45.0349 117.92 53.309C114.916 55.0243 110.077 57.7528 107.881 60.3295C107.683 63.784 107.923 66.9587 107.913 70.395C107.783 69.924 107.679 68.9271 107.609 68.4044C105.698 68.4525 100.201 73.0842 96.6104 72.9673C92.8701 72.8456 89.6545 70.2325 86.5597 68.3629C85.5341 67.7433 85.5538 68.2782 84.2903 67.2375L84.0695 67.442L82.7534 69.2039C81.722 67.4659 79.0969 67.1725 77.2084 66.7143C77.49 66.1403 78.0491 65.4286 78.4358 64.8938C84.7985 57.2623 89.7468 55.788 98.5412 51.6022C103.925 49.0399 105.924 46.8552 107.92 41.3286C111.636 32.6357 113.501 21.5209 123.66 17.7223Z"/><defs><linearGradient id="gradient_4" gradientUnits="userSpaceOnUse" x1="169.54321" y1="71.02002" x2="137.67076" y2="20.202118"><stop offset="0" stop-color="#30302F"/><stop offset="1" stop-color="#4A4949"/></linearGradient></defs><path fill="url(#gradient_4)" d="M134.593 27.0332C137.296 25.6162 135.022 23.7769 136.155 21.64C137.005 21.3621 136.998 21.5571 138.043 21.8985C148.013 32.0009 143.609 46.4797 158.038 52.2118C165.436 55.1503 173.829 59.3656 177.983 66.4157C176.553 68.3923 174.255 68.6968 173.255 70.015L173.068 70.0155C171.457 66.3014 167.334 63.3526 163.784 61.6572C161.744 60.0465 153.282 56.6116 150.188 54.8733C149.32 54.1065 146.881 52.2298 146.327 51.5002C140.813 44.2394 140.586 36.5617 135.6 28.3517L134.593 27.0332Z"/><defs><linearGradient id="gradient_5" gradientUnits="userSpaceOnUse" x1="128.47127" y1="18.153833" x2="105.2864" y2="45.210487"><stop offset="0" stop-color="#262624"/><stop offset="1" stop-color="#5E5E5E"/></linearGradient></defs><path fill="url(#gradient_5)" d="M123.66 17.7223C129.215 16.3632 134.124 17.6356 138.043 21.8985C136.998 21.5571 137.005 21.3621 136.155 21.64C135.022 23.7769 137.296 25.6162 134.593 27.0332C132.122 23.6464 130.031 23.192 126.174 23.3505C121.135 25.0517 119.502 29.1505 117.239 33.666C115.493 37.4007 113.35 44.829 111.976 47.2942C111.06 47.1828 110.268 46.9654 109.351 47.0371L109.01 47.6289C109.242 47.9022 109.434 48.1116 109.683 48.3714L109.228 48.3934C108.439 47.9643 108.332 47.831 107.73 47.1906C107.346 45.0889 109.705 45.8181 107.92 41.3286C111.636 32.6357 113.501 21.5209 123.66 17.7223Z"/><path fill="#262625" d="M123.66 17.7223C129.215 16.3632 134.124 17.6356 138.043 21.8985C136.998 21.5571 137.005 21.3621 136.155 21.64C135.022 23.7769 137.296 25.6162 134.593 27.0332C132.122 23.6464 130.031 23.192 126.174 23.3505L125.793 23.1705C125.902 22.9863 126.153 22.4191 126.191 22.2245C126.482 20.7213 127.739 19.7482 128.219 18.386L127.881 17.9913C126.66 17.654 125.017 17.7592 123.66 17.7223Z"/><path fill="#262625" d="M78.4358 64.8938C84.7985 57.2623 89.7468 55.788 98.5412 51.6022C103.925 49.0399 105.924 46.8552 107.92 41.3286C109.705 45.8181 107.346 45.0889 107.73 47.1906C108.332 47.831 108.439 47.9643 109.228 48.3934L109.683 48.3714C109.434 48.1116 109.242 47.9022 109.01 47.6289L109.351 47.0371C110.268 46.9654 111.06 47.1828 111.976 47.2942C106.848 57.7898 95.5882 57.7626 87.1324 64.5664C86.4088 65.1486 84.7689 66.5167 84.2903 67.2375L84.0695 67.442L82.7534 69.2039C81.722 67.4659 79.0969 67.1725 77.2084 66.7143C77.49 66.1403 78.0491 65.4286 78.4358 64.8938Z"/><path fill="#21221E" d="M78.4358 64.8938C81.3783 65.5199 81.757 65.5613 84.0695 67.442L82.7534 69.2039C81.722 67.4659 79.0969 67.1725 77.2084 66.7143C77.49 66.1403 78.0491 65.4286 78.4358 64.8938Z"/><path fill="#BFF93D" d="M126.174 23.3505C130.031 23.192 132.122 23.6464 134.593 27.0332L135.6 28.3517C134.946 28.3575 134.267 28.3559 133.84 28.8874C131.57 31.7107 130.424 36.4822 128.845 39.8065C127.393 39.7231 125.74 39.6858 124.332 39.3847C121.874 37.3928 119.784 34.6184 117.239 33.666C119.502 29.1505 121.135 25.0517 126.174 23.3505Z"/><path fill="#BFF93D" d="M77.819 91.5226C79.3038 91.0499 83.4382 92.9503 84.6503 92.2803L84.8845 92.7543C85.9082 92.8355 88.8709 92.2626 89.9718 92.0193C90.2488 92.7263 90.5136 93.4127 90.8252 94.106C91.7541 93.8396 96.4971 95.1642 97.2051 96.1541C97.7778 100.533 97.9111 102.674 97.9464 107.15L98.8592 107.621L98.3749 108.482C99.1445 108.629 99.7293 107.415 101.045 107.874C95.8479 110.66 93.7879 111.269 92.9304 117.552C93.9434 119.714 94.3839 120.367 96.2021 122.085C94.7303 121.753 93.1414 119.781 92.8728 118.423C91.7178 119.807 90.1948 121.856 88.8874 123.127C88.0348 123.955 86.2428 124.636 85.7818 125.526L85.9279 125.701C86.7002 125.414 87.0308 125.266 87.7599 124.87C84.7341 128.172 80.9339 129.5 77.6078 132.424C73.1647 136.329 69.9457 140.79 65.0436 144.375C63.3052 145.646 59.5543 150.797 57.2279 151.562C55.5932 151.479 48.6222 148.449 46.8293 148.688C47.3351 149.102 47.612 149.253 48.1639 149.575L48.181 150.002C46.7904 149.76 47.3661 149.092 45.7251 149.467C45.3506 149.553 45.0049 149.464 44.6416 149.355C44.4507 149.753 44.5764 149.787 44.7382 150.36L44.5308 150.369C44.2474 149.601 44.2544 149.27 44.2016 148.476C44.2734 147.348 44.5601 145.734 44.9021 144.674C45.1334 142.754 46.4158 139.212 47.0956 137.28C46.751 136.409 47.7795 134.456 47.2357 134.219C45.8315 133.608 44.4294 133.076 43.0787 132.34L42.8624 132.221C50.4846 116.411 60.9082 109.365 75.5358 101.202C80.5008 97.7264 80.204 96.6995 77.819 91.5226Z"/><defs><linearGradient id="gradient_6" gradientUnits="userSpaceOnUse" x1="59.050999" y1="110.70091" x2="66.274017" y2="123.73337"><stop offset="0" stop-color="#171618"/><stop offset="1" stop-color="#4D4F49"/></linearGradient></defs><path fill="url(#gradient_6)" d="M75.5358 101.202C76.3357 102.081 76.0696 102.024 77.2148 102.155C78.7292 102.329 82.2713 101.6 83.4965 102.01L83.2743 102.625C79.4654 106.458 75.391 108.181 70.8667 110.879C65.991 113.787 57.238 120.14 54.5394 125.204C53.7973 125.935 51.1771 129.584 50.7183 130.549C49.2969 132.671 48.0838 134.925 47.0956 137.28C46.751 136.409 47.7795 134.456 47.2357 134.219C45.8315 133.608 44.4294 133.076 43.0787 132.34L42.8624 132.221C50.4846 116.411 60.9082 109.365 75.5358 101.202Z"/><path fill="#CEEE86" d="M50.7183 130.549C51.0646 132.421 48.2228 133.366 50.274 134.704C51.3707 135.42 55.0559 137.045 55.4422 137.596C55.4465 140.154 59.3492 141.163 58.0622 144.096C56.15 145.906 50.8285 144.536 48.5088 144.068C47.3568 143.835 46.7866 143.147 45.9135 142.431L45.7003 142.654C45.9404 143.299 46.1229 143.799 46.3069 144.471L46.1585 144.642L45.5999 143.885C45.3769 144.14 45.1323 144.431 44.9021 144.674C45.1334 142.754 46.4158 139.212 47.0956 137.28C48.0838 134.925 49.2969 132.671 50.7183 130.549Z"/><defs><linearGradient id="gradient_7" gradientUnits="userSpaceOnUse" x1="77.240623" y1="94.006531" x2="83.237907" y2="101.01035"><stop offset="0" stop-color="#26242A"/><stop offset="1" stop-color="#585955"/></linearGradient></defs><path fill="url(#gradient_7)" d="M77.819 91.5226C79.3038 91.0499 83.4382 92.9503 84.6503 92.2803L84.8845 92.7543C85.6199 94.804 85.4631 95.6541 85.6247 97.8114C85.2518 98.8718 84.5122 101.53 83.4965 102.01C82.2713 101.6 78.7292 102.329 77.2148 102.155C76.0696 102.024 76.3357 102.081 75.5358 101.202C80.5008 97.7264 80.204 96.6995 77.819 91.5226Z"/><path fill="#A8E235" d="M85.8583 95.7893L87.0867 95.9854C87.8947 96.109 89.8316 96.7673 90.5743 97.1443C90.636 97.8368 90.6921 97.5596 90.1848 98.2233C89.7371 98.6563 86.4431 102.103 86.0768 102.557C86.1137 103.033 86.1744 103.238 85.9708 103.673L85.7795 103.714C84.8738 103.915 84.4019 104.119 83.5486 104.479C82.8775 106.114 85.5023 107.551 86.3175 108.984C88.2453 112.372 85.611 116.807 82.5653 118.67C83.581 117.339 84.6537 116.467 85.4326 114.921C88.1641 109.5 85.067 107.535 80.6425 105.804C79.0651 106.35 78.1142 107.376 76.7748 108.081C71.263 110.981 66.4978 114.008 61.7067 117.984C60.1051 119.313 55.5616 124.826 54.5394 125.204C57.238 120.14 65.991 113.787 70.8667 110.879C75.391 108.181 79.4654 106.458 83.2743 102.625L83.4965 102.01C84.5122 101.53 85.2518 98.8718 85.6247 97.8114C85.7144 97.3562 85.8024 96.2948 85.8583 95.7893Z"/><path fill="#A8E235" d="M89.9718 92.0193C90.2488 92.7263 90.5136 93.4127 90.8252 94.106C90.767 94.8159 90.7904 95.4213 90.3431 95.9788C89.2089 96.3893 88.2339 95.5676 85.8583 95.7893C85.8024 96.2948 85.7144 97.3562 85.6247 97.8114C85.4631 95.6541 85.6199 94.804 84.8845 92.7543C85.9082 92.8355 88.8709 92.2626 89.9718 92.0193Z"/><path fill="#CEEE86" d="M86.0768 102.557C86.4431 102.103 89.7371 98.6563 90.1848 98.2233C89.8086 98.9163 89.4842 99.5176 89.0531 100.181C89.9934 101.086 90.3349 101.161 90.6537 102.325C90.4732 103.047 90.446 103.138 89.9067 103.645C88.8498 103.73 88.1198 102.67 87.8153 101.748C86.738 101.944 87.3415 102.3 86.0768 102.557Z"/><path fill="#010101" d="M77.598 175.575C77.2593 170.87 77.6503 166.751 79.3352 162.323C81.1523 157.548 85.2444 152.66 90.6775 152.378C100.96 151.845 106.188 163.459 108.774 171.596C110.115 175.814 110.952 180.175 111.251 184.571C111.619 189.324 110.911 192.111 109.262 196.46C106.292 199.169 106.069 201.461 101.005 201.754C86.712 202.583 78.9253 187.401 77.598 175.575Z"/><path fill="#FDFDFD" d="M89.8269 155.52L90.2516 155.502C102.781 154.993 107.494 175.839 108.19 185.371C108.442 188.822 107.511 193.692 105.015 196.244C103.087 198.215 101.456 198.429 98.8438 198.499C81.1273 196.13 72.9242 162.887 89.8269 155.52Z"/><defs><linearGradient id="gradient_8" gradientUnits="userSpaceOnUse" x1="128.2719" y1="83.909065" x2="126.63531" y2="51.268284"><stop offset="0" stop-color="#748E43"/><stop offset="1" stop-color="#D1EAA1"/></linearGradient></defs><path fill="url(#gradient_8)" d="M117.92 53.309C129.935 45.0349 127.973 47.2559 140.283 54.929C141.515 55.6966 144.644 57.5191 145.516 58.3624C145.94 59.7732 145.776 63.5462 145.329 64.8167C145.298 63.6426 145.522 62.6535 145.115 61.6707L144.972 61.5413C144.334 62.9372 145.078 62.9035 144.707 65.1204C144.418 69.8718 144.808 75.1573 144.538 79.8426C143.697 76.8729 143.52 78.8737 141.951 78.0103C130.166 71.5239 120.684 75.949 111.821 84.5615C111.781 84.6509 111.74 84.7403 111.7 84.8297C111.322 83.1479 111.827 82.4101 111.07 81.2685C110.878 74.4419 111.034 68.1476 111.101 61.376L116.847 57.7161C115.9 55.0245 116.734 56.1368 117.84 53.501L117.92 53.309Z"/><defs><linearGradient id="gradient_9" gradientUnits="userSpaceOnUse" x1="130.84105" y1="64.384071" x2="131.24918" y2="48.313469"><stop offset="0" stop-color="#38402C"/><stop offset="1" stop-color="#687459"/></linearGradient></defs><path fill="url(#gradient_9)" d="M117.92 53.309C129.935 45.0349 127.973 47.2559 140.283 54.929C141.515 55.6966 144.644 57.5191 145.516 58.3624C145.94 59.7732 145.776 63.5462 145.329 64.8167C145.298 63.6426 145.522 62.6535 145.115 61.6707L144.972 61.5413C144.334 62.9372 145.078 62.9035 144.707 65.1204L144.506 61.4335C138.877 57.609 133.338 54.139 127.588 50.4998C124.429 52.8181 120.173 55.4894 116.847 57.7161C115.9 55.0245 116.734 56.1368 117.84 53.501L117.92 53.309Z"/><path fill="#84C028" d="M177.983 66.4157C178.399 67.1579 178.81 67.9031 179.215 68.6514C181.861 75.0841 182.031 81.5277 179.376 87.8456C177.969 91.1952 174.044 96.9035 177.701 99.7666C177.176 99.9308 171.218 100.329 170.55 100.25L170.578 100.609C170.318 100.882 169.87 101.303 169.535 101.448C165.059 103.388 161.574 105.854 156.606 104.469C154.743 98.4737 154.581 91.6655 155.19 85.4048C155.574 81.4576 162.718 77.0252 165.856 75.0291C167.356 74.0751 173.112 71.9756 173.626 71.0038L173.255 70.015C174.255 68.6968 176.553 68.3923 177.983 66.4157Z"/><path fill="#010101" d="M177.983 66.4157C178.399 67.1579 178.81 67.9031 179.215 68.6514C181.861 75.0841 182.031 81.5277 179.376 87.8456C177.969 91.1952 174.044 96.9035 177.701 99.7666C177.176 99.9308 171.218 100.329 170.55 100.25L170.396 100.089C167.869 89.5237 178.202 87.1957 174.359 72.8928L173.873 71.4168L173.626 71.0038L173.255 70.015C174.255 68.6968 176.553 68.3923 177.983 66.4157Z"/><path fill="#262625" d="M177.983 66.4157C178.399 67.1579 178.81 67.9031 179.215 68.6514C177.016 70.7177 174.3 70.2116 173.873 71.4168L173.626 71.0038L173.255 70.015C174.255 68.6968 176.553 68.3923 177.983 66.4157Z"/><path fill="#6B9A2E" d="M174.359 72.8928C178.202 87.1957 167.869 89.5237 170.396 100.089C170.059 99.8239 169.673 99.6949 169.315 99.484C167.467 98.3961 166.719 96.2609 166.061 94.4054C167.423 87.5717 173.452 80.5924 174.359 72.8928Z"/><path fill="#6B9A2E" d="M43.9056 154.42C47.2099 157.568 50.8092 179.811 61.2941 183.266C61.4633 182.6 61.3747 182.424 61.8357 182.113C63.0291 182.79 62.3134 183.601 63.714 184.423L63.8664 183.871L62.8962 182.43C65.6937 181.192 68.0504 185.759 70.8696 185.679C73.6521 185.6 75.7822 189.639 78.634 188.074C79.0516 187.845 78.8266 188.769 80.4273 188.107C79.835 187.431 80.2019 187.079 79.8987 186.469C78.4854 183.628 76.7854 178.681 77.598 175.575C78.9253 187.401 86.712 202.583 101.005 201.754C106.069 201.461 106.292 199.169 109.262 196.46C109.366 198.092 104.463 202.257 103.218 202.877C102.652 202.59 102.552 202.52 102.08 202.095C100.891 202.909 96.9293 201.531 96.1089 202.343L96.501 202.803C98.2897 202.941 100.129 204.659 100.672 204.611C106.609 204.088 106.216 205.024 110.88 207.531C117.104 210.877 122.636 216.345 130.212 214.927C130.592 214.855 134.408 214.606 134.737 214.602C135.942 213.88 137.056 212.596 137.914 212.508C138.574 212.764 138.649 212.805 139.088 213.358L139.218 214.093C139.985 213.434 140.181 212.331 140.725 211.83C143.086 209.658 146.227 208.597 147.772 205.655C147.955 205.306 149.887 205.365 150.446 204.792C150.304 202.744 142.524 200.346 142.19 197.947L142.244 197.719L142.354 197.799C147.676 201.748 148.089 203.131 155.304 204.05C154.98 204.55 150.674 206.601 149.74 207.147C147.795 208.301 145.954 209.621 144.238 211.094C139.65 215.083 132.795 230.299 124.869 226.061C118.934 222.888 114.063 214.8 108.595 210.506C104.217 207.068 99.2579 203.869 93.8917 201.935C73.6011 196.514 55.8733 185.967 47.52 165.749C46.631 163.597 46.3157 161.127 44.8507 159.265L44.595 159.266C44.5729 160.676 45.108 162.311 44.5756 163.556C44.1454 161.665 44.0235 159.369 43.8958 157.437L43.9056 154.42Z"/><path fill="#6B9A2E" d="M111.07 81.2685C111.827 82.4101 111.322 83.1479 111.7 84.8297C111.74 84.7403 111.781 84.6509 111.821 84.5615C120.684 75.949 130.166 71.5239 141.951 78.0103C143.52 78.8737 143.697 76.8729 144.538 79.8426C144.568 80.9275 144.576 83.1072 144.706 84.1032L144.701 87.6138C140.813 89.6463 131.226 94.9334 127.515 96.2352C122.075 93.5633 116.457 90.5733 111.062 87.7789L111.07 81.2685Z"/><path fill="#CEEE86" d="M101.045 107.874C107.373 105.378 116.071 103.712 122.677 105.976C124.808 106.706 127.172 109.554 125.996 111.721C122.13 118.845 103.124 123.902 96.2021 122.085C94.3839 120.367 93.9434 119.714 92.9304 117.552C93.7879 111.269 95.8479 110.66 101.045 107.874Z"/><defs><linearGradient id="gradient_10" gradientUnits="userSpaceOnUse" x1="134.74759" y1="96.094902" x2="112.51595" y2="56.874641"><stop offset="0" stop-color="#030A00"/><stop offset="1" stop-color="#383E2C"/></linearGradient></defs><path fill="url(#gradient_10)" d="M107.881 60.3295C110.077 57.7528 114.916 55.0243 117.92 53.309L117.84 53.501C116.734 56.1368 115.9 55.0245 116.847 57.7161L111.101 61.376C111.034 68.1476 110.878 74.4419 111.07 81.2685L111.062 87.7789C116.457 90.5733 122.075 93.5633 127.515 96.2352C131.226 94.9334 140.813 89.6463 144.701 87.6138L144.706 84.1032C144.887 82.3203 144.811 78.9597 144.825 77.0615L147.464 78.7265C147.507 79.5265 147.643 80.5297 147.73 81.3442C147.761 82.7918 148.069 89.061 147.042 89.6897C141.763 92.9216 132.681 98.0798 126.909 99.5427C122.289 96.7063 111.493 92.4434 107.993 89.1721C107.592 85.7174 107.856 78.9412 107.911 75.3592C107.964 73.67 107.942 72.0844 107.913 70.395C107.923 66.9587 107.683 63.784 107.881 60.3295Z"/><path fill="#BFF93D" d="M84.2903 67.2375C85.5538 68.2782 85.5341 67.7433 86.5597 68.3629C89.6545 70.2325 92.8701 72.8456 96.6104 72.9673C100.201 73.0842 105.698 68.4525 107.609 68.4044C107.679 68.9271 107.783 69.924 107.913 70.395C107.942 72.0844 107.964 73.67 107.911 75.3592C107.629 76.3184 107.747 78.4038 107.459 78.7449L107.366 78.1015L107.048 77.9055L106.821 78.5865C104.617 78.9403 105.252 79.766 104.007 80.0146L104.666 79.2466C103.002 78.9196 99.7988 81.7019 97.3629 81.6272C94.5801 81.6778 92.8611 81.5808 90.4827 79.8848C87.9359 78.0687 85.0705 78.6148 81.9451 78.0825C81.4549 77.1903 80.9372 76.3135 80.3927 75.4534L80.5511 74.0156C81.3504 71.8715 81.613 71.2005 82.7534 69.2039L84.0695 67.442L84.2903 67.2375Z"/><path fill="#010101" d="M77.819 91.5226C75.3006 88.4478 73.8476 80.3877 74.3553 76.5518C75.1209 79.0443 78.2539 78.872 80.0413 77.554C80.2904 85.0987 82.1429 85.9496 84.6503 92.2803C83.4382 92.9503 79.3038 91.0499 77.819 91.5226Z"/><path fill="#BFF93D" d="M163.784 61.6572C167.334 63.3526 171.457 66.3014 173.068 70.0155C173.015 70.0865 172.627 70.6018 172.627 70.6018C169.618 71.4514 164.004 72.237 161.53 73.9002L161.313 73.6658C162.26 72.5509 164.745 72.2015 166.365 71.4084C165.613 71.1674 164.664 71.9297 163.261 71.6443C160.885 69.9183 163.482 63.4833 165.347 63.1631L165.186 62.9117C164.456 62.6281 164.319 62.5618 163.687 62.1013L163.784 61.6572Z"/><path fill="#84C028" d="M80.0413 77.554L80.3927 75.4534C80.7667 78.4708 88.3302 88.0365 89.9718 92.0193C88.8709 92.2626 85.9082 92.8355 84.8845 92.7543L84.6503 92.2803C82.1429 85.9496 80.2904 85.0987 80.0413 77.554Z"/><path fill="#40423E" d="M145.516 58.3624C146.638 59.1022 146.996 59.336 147.763 60.4447C147.763 61.7332 147.691 63.9906 147.778 65.2002C147.729 68.0746 147.717 70.9495 147.742 73.8242C147.746 76.1256 147.839 79.0979 147.73 81.3442C147.643 80.5297 147.507 79.5265 147.464 78.7265L144.825 77.0615C144.811 78.9597 144.887 82.3203 144.706 84.1032C144.576 83.1072 144.568 80.9275 144.538 79.8426C144.808 75.1573 144.418 69.8718 144.707 65.1204C145.078 62.9035 144.334 62.9372 144.972 61.5413L145.115 61.6707C145.522 62.6535 145.298 63.6426 145.329 64.8167C145.776 63.5462 145.94 59.7732 145.516 58.3624Z"/><path fill="#BFF93D" d="M147.778 65.2002C149.184 66.0502 148.908 68.8846 148.911 70.3946C150.191 70.6476 153.571 72.6818 154.291 73.7572L154.126 74.0348C152.595 73.3188 150.497 75.5956 149.011 72.9309L148.71 72.9839C148.429 73.9119 148.457 74.288 148.45 75.2495L148.281 75.3023L148.095 74.9899L148.324 75.2664L148.366 74.7718L148.272 74.9694L148.259 74.8489L147.832 74.594C147.813 74.3593 147.802 74.0417 147.742 73.8242C147.717 70.9495 147.729 68.0746 147.778 65.2002Z"/><defs><linearGradient id="gradient_11" gradientUnits="userSpaceOnUse" x1="40.559563" y1="151.67165" x2="44.935181" y2="132.89265"><stop offset="0" stop-color="#202021"/><stop offset="1" stop-color="#686867"/></linearGradient></defs><path fill="url(#gradient_11)" d="M42.8624 132.221L43.0787 132.34C44.4294 133.076 45.8315 133.608 47.2357 134.219C47.7795 134.456 46.751 136.409 47.0956 137.28C46.4158 139.212 45.1334 142.754 44.9021 144.674C44.5601 145.734 44.2734 147.348 44.2016 148.476C43.9538 150.345 43.952 152.512 43.9056 154.42L43.8958 157.437C43.4994 156.901 43.6731 153.052 43.6837 152.108C41.8529 151.663 40.3266 151.703 38.4433 151.384C38.5186 144.231 39.7034 138.796 42.8624 132.221Z"/><path fill="#40423E" d="M77.2084 66.7143C79.0969 67.1725 81.722 67.4659 82.7534 69.2039C81.613 71.2005 81.3504 71.8715 80.5511 74.0156L80.3927 75.4534L80.0413 77.554C78.2539 78.872 75.1209 79.0443 74.3553 76.5518C74.5311 74.4325 74.7851 72.4163 75.5608 70.4251C75.6682 69.8322 76.8765 67.4124 77.2084 66.7143Z"/><path fill="#262625" d="M75.5608 70.4251C75.5044 71.5842 75.1122 73.2371 75.4289 74.0646C76.3189 74.9976 78.0358 75.9459 79.3391 75.5047C79.8126 74.6097 79.7241 74.2232 80.4296 73.9525L80.5511 74.0156L80.3927 75.4534L80.0413 77.554C78.2539 78.872 75.1209 79.0443 74.3553 76.5518C74.5311 74.4325 74.7851 72.4163 75.5608 70.4251Z"/></svg>